<?xml version="1.0" encoding="utf-8"?>
<!-- Generator: Adobe Illustrator 25.3.0, SVG Export Plug-In . SVG Version: 6.00 Build 0)  -->
<svg version="1.1" id="Layer_1" xmlns="http://www.w3.org/2000/svg" xmlns:xlink="http://www.w3.org/1999/xlink" x="0px" y="0px"
	 viewBox="0 0 740 917" style="enable-background:new 0 0 740 917;" xml:space="preserve">
<style type="text/css">
	.st0{fill:#FFFFFF;}
	.st1{fill:#1D1D1D;}
	.st2{fill:#2E2E2E;}
</style>
<g>
	<path class="st0" d="M447.8,324.4c0,0.1,0.4,0.2-0.2,0.2c-1.9,0.1-3.5-0.2-5.4-0.1l-0.1,0.1c-1.5-0.1-3.1-0.1-4.6-0.2
		c-2.9,0-5.8,0.1-8.8,0.1c0.1,0,0.1,0.1-0.2,0.1c-1.2,0-2.9,0-4.6,0c-0.3,0-0.5,0-0.8,0c-0.2,0-0.2,0.1-0.3,0.1c-0.8,0-1.5,0-2.1,0
		c-0.6,0-1.2,0-1.9,0.1c-0.1,0-0.3,0-0.4,0.1l0-0.3l0-0.2l0-0.6c0-0.9-0.1-1.8-0.1-2.7c-0.1-1.8-0.1-3.7-0.2-5.6
		c-0.1-3.8-0.2-7.6-0.4-11.6c-0.1-2-0.2-4-0.3-5.9c0-2.8,0-6.4,0.1-9.2c-0.5,0.4-0.7-6.3-1.2-5c0-1.8,0-4.6-0.1-4.7
		c-0.4-0.4-0.8-1.8-1.1-6.7c-0.1-1.9,0.1-4.8,0-5.5c-0.1-1.1-0.3,2.5-0.4,1.4c-0.1,14.2,0,27.9,0,42.2c0,1,0.1,3.1,0.1,5.9
		c0,3.3,0,7.5,0.1,12c6.2,0,13.2,0,19.2-0.1c5.5,0,10.2,0,12.7,0l0.8,0c4.6,0,10.2,0,14.1-0.2c1.8-0.1,3.6-0.2,5.4-0.4
		c-0.8-0.1-1.6-0.2-2.3-0.2c1.8,0,3.7,0,4.4-0.1c3.9-0.2,1.7-0.4,0.2-0.7c-1.1-0.1,0.4-0.3-1.3-0.5c1.2,0,1.8,0,3.1,0
		c0.1-0.1-3.8,0.1-2.9-0.1c1.2,0,2.5,0,3.7,0c-0.4-0.2-4.2-0.1-4.1-0.2c0.7,0,3.4,0.2,3.7,0c0,0-1.2-0.1-1.8-0.1
		c3.8-0.1,5.8-0.3,2.4-0.5c1.2,0,2.9,0.1,4.1,0.1l0,0c-0.6,0-1.7,0-2.3-0.1l2.2,0c-0.1,0-0.2-0.1-0.4-0.1c-0.5,0-1.1,0-1.6-0.1
		l1.4,0c-0.4-0.1-0.8-0.1-1.2-0.2c-1.7-0.1-3.3-0.3-4.2-0.4C462.7,324.5,455.2,324.4,447.8,324.4z"/>
</g>
<g>
	<path class="st1" d="M523.4,883.1c0.1,0,0.2-0.4,0.2,0.2c0.1,1.9-0.2,3.5-0.1,5.4l0.1,0.1c-0.1,1.5-0.1,3.1-0.2,4.6
		c0,2.9,0.1,5.8,0.1,8.8c0-0.1,0.1-0.1,0.1,0.2c0,1.2,0,2.9,0,4.6c0,0.3,0,0.5,0,0.8c0,0.2,0.1,0.2,0.1,0.3c0,0.8,0,1.5,0,2.1
		c0,0.6,0,1.2,0.1,1.9c0,0.1,0,0.3,0.1,0.4l-0.3,0l-0.2,0l-0.6,0c-0.9,0-1.8,0.1-2.7,0.1c-1.8,0.1-3.7,0.1-5.6,0.2
		c-3.8,0.1-7.6,0.2-11.6,0.4c-2,0.1-4,0.2-5.9,0.3c-2.8,0-6.4,0-9.2-0.1c0.4,0.5-6.3,0.7-5,1.2c-1.8,0-4.6,0-4.7,0.1
		c-0.4,0.4-1.8,0.8-6.7,1.1c-1.9,0.1-4.8-0.1-5.5,0c-1.1,0.1,2.5,0.3,1.4,0.4c14.2,0.1,27.9,0,42.2,0c1,0,3.1-0.1,5.9-0.1
		c3.3,0,7.5,0,12-0.1c0-6.2,0-13.2-0.1-19.2c0-5.5,0-10.2,0-12.7l0-0.8c0-4.6,0-10.2-0.2-14.1c-0.1-1.8-0.2-3.6-0.4-5.4
		c-0.1,0.8-0.2,1.6-0.2,2.3c0-1.8,0-3.7-0.1-4.4c-0.2-3.9-0.4-1.7-0.7-0.2c-0.1,1.1-0.3-0.4-0.5,1.3c0-1.2,0-1.8,0-3.1
		c-0.1-0.1,0.1,3.8-0.1,2.9c0-1.2,0-2.5,0-3.7c-0.2,0.4-0.1,4.2-0.2,4.1c0-0.7,0.2-3.4,0-3.7c0,0-0.1,1.2-0.1,1.8
		c-0.1-3.8-0.3-5.8-0.5-2.4c0-1.2,0.1-2.9,0.1-4.1l0,0c0,0.6,0,1.7-0.1,2.3l0-2.2c0,0.1-0.1,0.2-0.1,0.4c0,0.5,0,1.1-0.1,1.6l0-1.4
		c-0.1,0.4-0.1,0.8-0.2,1.2c-0.1,1.7-0.3,3.3-0.4,4.2C523.5,868.3,523.4,875.7,523.4,883.1z"/>
</g>
<g>
	<g>
		<path class="st1" d="M478.8,155.3c-0.1,0.1,0,0.2-0.2,0.1c-0.6-0.5-0.9-1.1-1.5-1.6c0,0-0.1,0-0.1,0.1c-0.4-0.5-0.8-1-1.2-1.5
			c-0.8-0.8-1.7-1.6-2.6-2.4c0,0.1,0,0.1-0.1,0c-0.4-0.3-0.8-0.8-1.3-1.3c-0.1-0.1-0.2-0.1-0.2-0.2c-0.1,0-0.1,0-0.2,0
			c-0.2-0.2-0.4-0.4-0.6-0.6c-2.6-2.2-5.3-4.5-8.2-6.9c-0.6-0.5-1.3-1-1.9-1.5c-0.8-0.8-1.8-1.9-2.6-2.7c-0.2,0.4-2.3-1.3-2.2-0.6
			c-0.5-0.5-1.3-1.3-1.4-1.3c-0.4,0.2-1.1,0.1-2.7-1.2c-0.6-0.5-1.3-1.5-1.6-1.6c-0.4-0.2,0.5,0.9,0.1,0.7c3.9,4.1,8,7.9,12,12
			c1.5,1.2,10.9,10.5,13.3,13c0.1,0.1,0.1,0.1,0.2,0.2c1.3,1.3,2.9,2.9,4.1,3.9c0.6,0.4,1.2,0.9,1.8,1.3c-0.2-0.3-0.4-0.6-0.5-0.8
			c0.5,0.5,1,1.1,1.3,1.2c1.3,1,0.8,0.2,0.6-0.5c-0.2-0.4,0.4-0.1,0-0.7c0.3,0.4,0.5,0.5,0.9,0.9c0.1-0.1-1.1-1-0.7-0.9
			c0.3,0.4,0.7,0.7,1.1,1c0-0.2-1.2-1.3-1-1.3c0.2,0.2,0.8,1.1,1,1.1c0,0-0.3-0.4-0.5-0.5c1.1,1,1.9,1.5,1,0.3
			c0.3,0.3,0.8,0.9,1.1,1.2c0,0,0,0,0,0c-0.2-0.2-0.5-0.5-0.6-0.7c0.2,0.2,0.4,0.4,0.6,0.6c0-0.1,0-0.1,0-0.2
			c-0.1-0.2-0.3-0.3-0.4-0.5c0.1,0.1,0.3,0.3,0.4,0.4c-0.1-0.2-0.1-0.3-0.2-0.5c-0.4-0.6-0.7-1.2-1-1.5
			C483,159.6,480.9,157.4,478.8,155.3z"/>
	</g>
	<g>
		<path class="st1" d="M475.9,137.6c0.1,0.1,0.2,0,0.1,0.2c-0.5,0.6-1.1,0.9-1.6,1.5c0,0,0,0.1,0.1,0.1c-0.5,0.4-1,0.8-1.5,1.2
			c-0.8,0.8-1.6,1.7-2.4,2.6c0.1,0,0.1,0,0,0.1c-0.3,0.4-0.8,0.8-1.3,1.3c-0.1,0.1-0.1,0.2-0.2,0.2c0,0.1,0,0.1,0,0.2
			c-0.2,0.2-0.4,0.4-0.6,0.6c-2.2,2.6-4.5,5.3-6.9,8.2c-0.5,0.6-1,1.3-1.5,1.9c-0.8,0.8-1.9,1.8-2.7,2.6c0.4,0.2-1.3,2.3-0.6,2.2
			c-0.5,0.5-1.3,1.3-1.3,1.4c0.2,0.4,0.1,1.1-1.2,2.7c-0.5,0.6-1.5,1.3-1.6,1.6c-0.2,0.4,0.9-0.5,0.7-0.1c4.1-3.9,7.9-8,12-12
			c1.2-1.5,10.5-10.9,13-13.3c0.1-0.1,0.1-0.1,0.2-0.2c1.3-1.3,2.9-2.9,3.9-4.1c0.4-0.6,0.9-1.2,1.3-1.8c-0.3,0.2-0.6,0.4-0.8,0.5
			c0.5-0.5,1.1-1,1.2-1.3c1-1.3,0.2-0.8-0.5-0.6c-0.4,0.2-0.1-0.4-0.7,0c0.4-0.3,0.5-0.5,0.9-0.9c-0.1-0.1-1,1.1-0.9,0.7
			c0.4-0.3,0.7-0.7,1-1.1c-0.2,0-1.3,1.2-1.3,1c0.2-0.2,1.1-0.8,1.1-1c0,0-0.4,0.3-0.5,0.5c1-1.1,1.5-1.9,0.3-1
			c0.3-0.3,0.9-0.8,1.2-1.1c0,0,0,0,0,0c-0.2,0.2-0.5,0.5-0.7,0.6c0.2-0.2,0.4-0.4,0.6-0.6c-0.1,0-0.1,0-0.2,0
			c-0.2,0.1-0.3,0.3-0.5,0.4c0.1-0.1,0.3-0.3,0.4-0.4c-0.2,0.1-0.3,0.1-0.5,0.2c-0.6,0.4-1.2,0.7-1.5,1
			C480.2,133.4,478,135.5,475.9,137.6z"/>
	</g>
	<g>
		<path class="st1" d="M513.7,110.1c-0.1,0.1-0.1,0.2-0.2,0.1c-0.3-0.2-0.3-0.6-0.6-0.7c0,0-0.1,0.1-0.1,0.1
			c-0.1-0.2-0.3-0.5-0.4-0.7c-0.4-0.3-0.7-0.7-1.1-1c0,0-0.1,0.1-0.1,0.1c-0.2-0.1-0.3-0.3-0.5-0.6c0,0-0.1,0-0.1-0.1
			c0,0-0.1,0-0.1,0c-0.1-0.1-0.2-0.2-0.2-0.3c-1.2-0.8-2.4-1.6-3.8-2.5c-0.3-0.1-0.6-0.3-0.9-0.5c-0.4-0.3-0.7-0.8-1.1-1.1
			c-0.3,0.4-1.2-0.3-1.4,0.2c-0.2-0.2-0.5-0.6-0.6-0.5c-0.3,0.2-0.8,0.4-1.6,0c-0.3-0.2-0.5-0.7-0.6-0.7c-0.2,0,0.1,0.5-0.1,0.5
			c1.6,1.8,3.3,3.3,5,5c0.7,0.4,4.7,4.3,5.6,5.3c0,0,0.1,0.1,0.1,0.1c0.5,0.6,1.2,1.2,1.8,1.5c0.3,0.1,0.6,0.3,0.9,0.4
			c0-0.2-0.1-0.3-0.1-0.4c0.2,0.2,0.4,0.5,0.6,0.5c0.6,0.3,0.5-0.1,0.5-0.5c0-0.2,0.3-0.2,0.2-0.5c0.1,0.1,0.2,0.2,0.4,0.4
			c0.1-0.1-0.5-0.4-0.2-0.5c0.1,0.2,0.3,0.3,0.5,0.4c0.1-0.2-0.5-0.6-0.3-0.7c0.1,0,0.2,0.6,0.4,0.5c0,0-0.1-0.2-0.2-0.3
			c0.5,0.4,0.9,0.5,0.6-0.1c0.1,0.1,0.3,0.4,0.4,0.5c0,0,0,0,0,0c-0.1-0.1-0.2-0.2-0.2-0.3c0.1,0.1,0.2,0.2,0.2,0.3c0,0,0-0.1,0-0.1
			c0-0.1-0.1-0.2-0.2-0.2c0.1,0.1,0.1,0.1,0.2,0.2c0-0.1,0-0.2,0-0.3c-0.1-0.3-0.1-0.6-0.3-0.8C515.4,112,514.5,111,513.7,110.1z"/>
	</g>
	<g>
		<path class="st1" d="M510.8,102.7c0.1,0.1,0.2,0.1,0.1,0.2c-0.2,0.3-0.6,0.3-0.7,0.6c0,0,0.1,0.1,0.1,0.1
			c-0.2,0.1-0.5,0.3-0.7,0.4c-0.3,0.4-0.7,0.7-1,1.1c0,0,0.1,0.1,0.1,0.1c-0.1,0.2-0.3,0.3-0.6,0.5c0,0,0,0.1-0.1,0.1
			c0,0,0,0.1,0,0.1c-0.1,0.1-0.2,0.2-0.3,0.2c-0.8,1.2-1.6,2.4-2.5,3.8c-0.2,0.3-0.3,0.6-0.5,0.9c-0.3,0.4-0.8,0.7-1.1,1.1
			c0.4,0.3-0.3,1.2,0.2,1.4c-0.2,0.2-0.6,0.5-0.5,0.6c0.2,0.3,0.4,0.8,0,1.6c-0.2,0.3-0.7,0.5-0.7,0.6c0,0.2,0.5-0.1,0.5,0.1
			c1.8-1.6,3.3-3.3,5-5c0.4-0.7,4.3-4.7,5.3-5.6c0,0,0.1-0.1,0.1-0.1c0.6-0.5,1.2-1.2,1.5-1.8c0.1-0.3,0.3-0.6,0.4-0.9
			c-0.2,0-0.3,0.1-0.4,0.1c0.2-0.2,0.5-0.4,0.5-0.6c0.3-0.6-0.1-0.5-0.5-0.5c-0.2,0-0.2-0.3-0.5-0.2c0.1-0.1,0.2-0.2,0.4-0.4
			c-0.1-0.1-0.4,0.5-0.5,0.2c0.2-0.1,0.3-0.3,0.4-0.5c-0.2-0.1-0.6,0.5-0.7,0.3c0-0.1,0.6-0.2,0.5-0.4c0,0-0.2,0.1-0.3,0.2
			c0.4-0.5,0.5-0.9-0.1-0.6c0.1-0.1,0.4-0.3,0.5-0.4c0,0,0,0,0,0c-0.1,0.1-0.2,0.2-0.3,0.2c0.1-0.1,0.2-0.2,0.3-0.2c0,0-0.1,0-0.1,0
			c-0.1,0-0.2,0.1-0.2,0.2c0.1-0.1,0.1-0.1,0.2-0.2c-0.1,0-0.2,0-0.3,0c-0.3,0.1-0.6,0.1-0.8,0.3C512.6,101,511.6,101.9,510.8,102.7
			z"/>
	</g>
</g>
<g>
	<g>
		<path class="st2" d="M709.8,365.5c0-0.1-0.1-0.2,0-0.2c0.5-0.1,0.9,0.1,1.4,0c0,0,0-0.1,0-0.1c0.4,0,0.8,0,1.2,0.1
			c0.7-0.1,1.5-0.2,2.2-0.3c0,0,0-0.1,0-0.1c0.3-0.1,0.7-0.1,1.2-0.1c0.1,0,0.1,0,0.2,0c0,0,0.1-0.1,0.1-0.1c0.2,0,0.4,0,0.5,0
			c2.1-0.5,4.3-1,6.6-1.6c0.5-0.2,1-0.3,1.5-0.5c0.7-0.1,1.6-0.1,2.3-0.2c-0.2-0.4,1.5-0.9,1.1-1.3c0.5,0,1.2-0.1,1.2-0.2
			c0.1-0.4,0.4-0.9,1.6-1.3c0.5-0.1,1.2,0,1.4-0.1c0.3-0.2-0.7-0.2-0.4-0.4c-3.6,0.2-7,0.8-10.7,1.2c-1.2,0.3-9.5,1.3-11.6,1.4
			c-0.1,0-0.1,0-0.2,0c-1.2,0.1-2.6,0.3-3.5,0.6c-0.4,0.2-0.9,0.3-1.3,0.5c0.2,0.1,0.4,0.1,0.6,0.2c-0.5,0-0.9,0.1-1.1,0.2
			c-1,0.3-0.4,0.5,0,0.7c0.3,0.1-0.1,0.4,0.4,0.5c-0.3,0-0.5,0-0.8,0.1c0,0.1,0.9-0.2,0.8,0.1c-0.3,0-0.6,0.1-0.9,0.1
			c0.1,0.2,1.1,0,1.1,0.1c-0.2,0.1-0.9-0.1-0.9,0.1c0,0,0.3,0,0.5,0c-0.9,0.2-1.5,0.4-0.6,0.6c-0.3,0-0.7,0-1.1,0c0,0,0,0,0,0
			c0.2,0,0.4,0,0.6,0c-0.2,0-0.4,0-0.5,0c0,0,0.1,0.1,0.1,0.1c0.1,0,0.3,0,0.4,0c-0.1,0-0.2,0-0.4,0c0.1,0.1,0.2,0.1,0.3,0.2
			c0.4,0.1,0.9,0.3,1.1,0.2C706,365.8,707.9,365.7,709.8,365.5z"/>
	</g>
	<g>
		<path class="st0" d="M708.1,340.3c0-0.1-0.2,0-0.1-0.2c0.6-0.6,1.2-0.8,1.8-1.4c0,0,0-0.1,0-0.1c0.5-0.4,1.1-0.7,1.6-1.1
			c0.9-0.8,1.9-1.6,2.8-2.4c-0.1,0-0.1,0,0-0.1c0.4-0.4,0.9-0.8,1.5-1.2c0.1-0.1,0.2-0.1,0.2-0.2c0-0.1,0-0.1,0-0.2
			c0.3-0.2,0.5-0.4,0.7-0.5c2.6-2.5,5.2-5,8-7.8c0.6-0.6,1.1-1.2,1.7-1.8c0.9-0.8,2.1-1.7,3-2.4c-0.4-0.2,1.6-2.2,0.9-2.2
			c0.6-0.5,1.5-1.2,1.5-1.3c-0.1-0.4,0.1-1.1,1.5-2.6c0.6-0.6,1.6-1.2,1.8-1.5c0.3-0.4-1,0.5-0.7,0.1c-4.7,3.7-9,7.5-13.6,11.3
			c-1.4,1.5-12,10.3-14.7,12.5c-0.1,0.1-0.2,0.1-0.2,0.2c-1.5,1.2-3.3,2.7-4.4,3.9c-0.5,0.6-1,1.1-1.5,1.7c0.3-0.2,0.6-0.3,0.9-0.4
			c-0.6,0.5-1.2,1-1.4,1.2c-1.1,1.2-0.3,0.8,0.4,0.6c0.4-0.2,0.1,0.4,0.7,0c-0.4,0.3-0.6,0.5-1,0.8c0,0.1,1.2-1.1,1-0.7
			c-0.4,0.3-0.8,0.7-1.2,1c0.2,0,1.4-1.1,1.5-0.9c-0.2,0.2-1.3,0.7-1.2,1c0,0,0.4-0.3,0.6-0.4c-1.2,1.1-1.7,1.8-0.5,1
			c-0.4,0.3-1,0.7-1.4,1.1c0,0,0,0,0,0c0.2-0.2,0.6-0.4,0.8-0.6c-0.2,0.2-0.5,0.4-0.7,0.6c0.1,0,0.1,0,0.2,0
			c0.2-0.1,0.4-0.3,0.6-0.4c-0.2,0.1-0.3,0.3-0.5,0.4c0.2,0,0.3-0.1,0.5-0.2c0.6-0.3,1.3-0.6,1.6-0.9
			C703.2,344.2,705.7,342.3,708.1,340.3z"/>
	</g>
	<g>
		<path class="st2" d="M681,326.3c-0.1,0-0.2,0.1-0.2-0.1c-0.1-0.4,0.2-0.8,0.2-1.2l-0.1,0c0.1-0.3,0.2-0.7,0.2-1c0-0.6,0-1.3,0-2
			c0,0-0.1,0-0.1,0c0-0.3,0.1-0.6,0.1-1l0-0.2c0,0-0.1-0.1-0.1-0.1c0-0.2,0-0.3,0.1-0.5c-0.1-1.9-0.2-3.9-0.3-6
			c-0.1-0.5-0.1-0.9-0.1-1.3c0-0.6,0.2-1.4,0.3-2c-0.5,0-0.5-1.5-1-1.3c0.1-0.4,0.2-1,0-1.1c-0.4-0.2-0.8-0.5-0.8-1.7
			c0-0.4,0.3-1.1,0.2-1.2c-0.1-0.3-0.4,0.5-0.4,0.3c-0.6,3.2-0.9,6.3-1.2,9.5c0,0.6-0.1,2.7-0.2,5c-0.1,2.2-0.2,4.6-0.3,5.5l0,0.2
			c-0.1,1-0.1,2.3,0.1,3.2c0.1,0.4,0.2,0.8,0.4,1.2c0.1-0.2,0.2-0.4,0.2-0.5c0,0.4,0,0.8,0.1,1c0.2,0.9,0.4,0.4,0.7,0
			c0.1-0.2,0.3,0.1,0.5-0.3c0,0.3,0,0.4,0,0.7c0.1,0-0.1-0.8,0.1-0.7c-0.1,0.3,0,0.6,0,0.8c0.2-0.1,0.1-1,0.2-0.9
			c0,0.1-0.2,0.8,0,0.8c0,0,0.1-0.3,0.1-0.4c0.1,0.8,0.3,1.3,0.5,0.5c0,0.3-0.1,0.6-0.1,0.9l0,0c0-0.1,0.1-0.4,0.1-0.5l0,0.5
			l0.1-0.1c0-0.1,0-0.2,0.1-0.4l0,0.3c0.1-0.1,0.1-0.2,0.2-0.3c0.1-0.4,0.3-0.7,0.4-0.9C680.8,329.7,680.9,328,681,326.3z"/>
	</g>
</g>
<g>
	<path class="st2" d="M121.4,32.1c0,0.1,1,0.2-0.6,0.2c-5.1,0.1-9.2-0.2-14.3-0.1l-0.4,0.1c-4-0.1-8.1-0.1-12.3-0.2
		c-7.7,0-15.4,0.1-23.1,0.1c0.2,0,0.3,0.1-0.5,0.1c-3.2,0-7.6,0-12.2,0c-0.7,0-1.4,0-2,0c-0.5,0-0.7,0.1-0.7,0.1c-2.1,0-3.9,0-5.6,0
		c-3.9,0-7.7,0.1-12,0.1c0.2,14.2,0.3,28.9,0.5,44.9c5.6-0.1,12.1-0.1,18.6-0.2c5.2-0.1,10.5-0.2,15.5-0.3c7.5,0,17,0,24.3,0.1
		c-1.1-0.5,16.6-0.7,13.1-1.2c4.9,0,12.1,0,12.5-0.1c1.1-0.4,4.9-0.8,17.8-1.1c5-0.1,12.8,0.1,14.6,0c2.8-0.1-6.5-0.3-3.7-0.4
		c-18.8,0-37.2,0-55.6,0c-17.8,0-35.6,0-53.9,0.1l0,0c0,0,0,0,0,0l0,0c0,0,0,0,0-0.1c0-0.1,0-0.2,0-0.4c0-1,0-2.2,0-3.5
		c0-2.6,0-5.9-0.1-9.6c0-6.9,0-15.4-0.1-24.7c29.1,0,64.7,0,77.7,0c0.7,0,1.3,0,2,0c5.4,0,11.4,0,17.2,0c2.9,0,5.8,0,8.6,0
		c1.4,0,2.7,0,4.1,0c0.6,0,1.2,0,1.8,0c0.1,0,0.2,0,0.4,0c0,0.1,0,0.2,0,0.3c0,0.5,0,1,0,1.5c0.1,4.7,0.2,9.5,0.4,14.3
		c0.1-2.2,0.2-4.3,0.2-6.1c0,4.9,0,9.7,0.1,11.6c0.2,10.3,0.4,4.5,0.7,0.5c0.1-2.9,0.3,1,0.5-3.5c0,3.2,0,4.8,0,8.1
		c0.1,0.4-0.1-10,0.1-7.7c0,3.1,0,6.6,0,9.8c0.2-1.1,0.1-11.2,0.2-10.7c0,1.7-0.2,9.1,0,9.7c0,0.1,0.1-3.1,0.1-4.7
		c0.1,10,0.3,15.5,0.5,6.4c0,3.2-0.1,7.6-0.1,11c0,0,0,0,0,0c0-1.7,0-4.5,0.1-6.1c0,1.9,0,3.8,0,5.7c0-0.3,0.1-0.6,0.1-1
		c0-1.4,0-2.8,0.1-4.3c0,1.3,0,2.5,0,3.8c0.1-1,0.1-2,0.2-3.2c0.1-4.5,0.3-8.8,0.4-11.2c0-9.2,0.1-18.5,0.1-27.7
		C144.8,32.2,133.1,32.2,121.4,32.1z"/>
</g>
<g>
	<path class="st0" d="M121.5,7.5c0,0-0.1,0.1-0.1,0.2c0,0,0,0,0-0.1c0,0,0-0.1,0-0.2c0-0.1,0-0.1,0-0.4c0-1.3,0-2.5,0-3.7
		c-1.1,0-2.1,0-3.1,0l-1.2,0l-0.8,0c-1.1,0-2.2-0.1-3.4,0l-0.2,0.1c-2.4-0.1-4.9-0.1-7.5-0.2c-4.7,0-9.4,0.1-14.1,0.1
		c0.1,0,0.2,0.1-0.3,0.1c-1.9,0-4.6,0-7.4,0c-0.4,0-0.8,0-1.2,0c-0.3,0-0.4,0.1-0.5,0.1c-1.3,0-2.4,0-3.4,0c-1,0-2,0-3.1,0.1
		c-1.6,0-3.2,0-4.9,0.1c0.2,12,0.5,24.6,0.7,38c0.1,3.2,0.2,6.4,0.3,9.5c0,0.9,0,1.9,0,3c4.2,0,9.1,0,13,0.1
		c-0.7-0.5,10.1-0.7,8-1.2c3,0,7.4,0,7.6-0.1c0.7-0.4,3-0.8,10.8-1.1c3.1-0.1,7.8,0.1,8.9,0c1.7-0.1-4-0.3-2.3-0.4
		c-7.7,0-15.3,0-22.8-0.1c-6.9,0-13.7,0-20.6,0c0-6.7,0-13.5,0-20.4c0-1.6-0.1-5-0.1-9.5c0-4,0-9-0.1-14.5c13.2-0.1,40-0.1,44.1,0
		c0,0,0,0.1,0,0.1l0,0.2c0,3.7,0,7.8,0,11.7c0,4,0.1,7.8,0.2,10.9c0.1,2.9,0.2,5.8,0.4,8.7c0.1-1.3,0.2-2.6,0.2-3.7
		c0,3,0,5.9,0.1,7.1c0.2,6.3,0.4,2.7,0.7,0.3c0.1-1.7,0.3,0.6,0.5-2.1c0,2,0,3,0,4.9c0.1,0.2-0.1-6.1,0.1-4.7c0,1.9,0,4,0,6
		c0.2-0.7,0.1-6.8,0.2-6.5c0,1.1-0.2,5.5,0,5.9c0,0.1,0.1-1.9,0.1-2.9c0.1,6.1,0.3,9.4,0.5,3.9c0,1.9-0.1,4.6-0.1,6.7c0,0,0,0,0,0
		c0-1,0-2.8,0.1-3.7c0,1.2,0,2.3,0,3.5c0-0.2,0.1-0.4,0.1-0.6c0-0.9,0-1.7,0.1-2.6c0,0.8,0,1.5,0,2.3c0.1-0.6,0.1-1.2,0.2-2
		c0.1-2.7,0.3-5.4,0.4-6.8C121.4,31.5,121.5,19.5,121.5,7.5z"/>
</g>
</svg>
