<?xml version="1.0" encoding="UTF-8" standalone="no"?>
<!-- Generator: Adobe Illustrator 19.0.0, SVG Export Plug-In . SVG Version: 6.00 Build 0)  -->

<svg
   version="1.1"
   id="layer"
   x="0px"
   y="0px"
   viewBox="-153 -46 1280 652"
   xml:space="preserve"
   sodipodi:docname="daily.svg"
   width="1280"
   height="652"
   inkscape:version="1.1 (c4e8f9e, 2021-05-24)"
   xmlns:inkscape="http://www.inkscape.org/namespaces/inkscape"
   xmlns:sodipodi="http://sodipodi.sourceforge.net/DTD/sodipodi-0.dtd"
   xmlns="http://www.w3.org/2000/svg"
   xmlns:svg="http://www.w3.org/2000/svg"><defs
   id="defs288" /><sodipodi:namedview
   id="namedview286"
   pagecolor="#ffffff"
   bordercolor="#666666"
   borderopacity="1.0"
   inkscape:pageshadow="2"
   inkscape:pageopacity="0.0"
   inkscape:pagecheckerboard="0"
   showgrid="false"
   width="1280px"
   inkscape:zoom="0.66947853"
   inkscape:cx="318.15808"
   inkscape:cy="177.00344"
   inkscape:window-width="2045"
   inkscape:window-height="1081"
   inkscape:window-x="0"
   inkscape:window-y="25"
   inkscape:window-maximized="0"
   inkscape:current-layer="layer" />
<style
   type="text/css"
   id="style277">
	.st0{fill:#1F2D3D;}
	.st1{fill:#76C720;}
	.st2{fill:#8897A8;}
</style>


<g
   id="g700"
   transform="matrix(1.6521403,0,0,1.6176954,208.69697,-165.35154)"><path
     class="st0"
     d="m -104.5,303.4 h 11 c 24,0 35.4,-13.8 35.4,-39 V 263 c 0,-25 -10.5,-38.5 -35.7,-38.5 h -10.7 z m -27.1,21.5 V 203.2 h 39.1 c 41.9,0 62.6,23.1 62.6,59.6 v 1.4 c 0,36.4 -20.9,60.8 -62.8,60.8 h -38.9 z M 11,326.7 c -15.9,0 -29.2,-7.8 -29.2,-26.5 0,-20.8 18.7,-28.6 45.4,-28.6 H 37 V 268 c 0,-10.6 -3.2,-16.3 -14.2,-16.3 -9.5,0 -13.9,4.9 -14.9,12.6 H -15 c 1.5,-21.1 17.9,-30.5 39.2,-30.5 21.3,0 36.6,8.8 36.6,33 v 58 H 37.3 v -10.7 c -5,7.2 -12.7,12.6 -26.3,12.6 z m 7.1,-17.2 c 10.7,0 18.9,-6 18.9,-15.8 v -7.5 h -9.3 c -14,0 -22.2,3.1 -22.2,12.6 0,6.5 3.8,10.7 12.6,10.7 z m 64.1,15.4 h 24 v -89 h -24 z m 46.9,0 h 24 V 195.5 h -24 z m 57.1,30.2 15.4,-39.3 -34.7,-80 h 26 l 21.2,53.4 19.5,-53.4 h 23.2 l -47.2,119.3 z m -92,-133.7 c -6.7,0 -11.9,-5.3 -11.9,-12.3 0,-7 5.2,-12.3 11.9,-12.3 6.8,0 12.1,5.3 12.1,12.3 0,7 -5.3,12.3 -12.1,12.3 z"
     id="path279" /><path
     class="st1"
     d="m 258.3,326.8 c 6.8,0 12.1,-5.5 12.1,-12.3 0,-6.7 -5.2,-12.2 -12.1,-12.2 -6.7,0 -11.9,5.5 -11.9,12.2 0,6.8 5.2,12.3 11.9,12.3 z"
     id="path281" /><path
     class="st2"
     d="M 324.9,326.7 C 299.4,326.7 280,310.5 280,281.4 V 280 c 0,-28.8 20.2,-46.3 45.1,-46.3 20.2,0 38.9,9 41.1,34.5 h -22.9 c -1.7,-10.4 -7.8,-15.1 -17.7,-15.1 -12.5,0 -20.9,9.5 -20.9,26.5 v 1.4 c 0,17.9 7.8,27.1 21.4,27.1 9.7,0 17.5,-5.8 18.7,-17.2 h 21.9 c -1.4,21.2 -16.4,35.8 -41.8,35.8 z m 97.5,0 c -26,0 -45.9,-17.7 -45.9,-45.4 v -1.4 c 0,-27.9 19.9,-46.1 46.1,-46.1 26.2,0 45.9,17.9 45.9,45.6 v 1.4 c -0.1,28.1 -19.9,45.9 -46.1,45.9 z m 0.1,-18.7 c 13.5,0 21.4,-10.2 21.4,-27.1 v -1.2 c 0,-17 -7.8,-27.2 -21.4,-27.2 -13.4,0 -21.4,9.9 -21.4,26.9 v 1.4 c 0.1,17 7.7,27.2 21.4,27.2 z"
     id="path283" /></g>
</svg>
