<?xml version="1.0" encoding="UTF-8"?>
<svg width="420px" height="236px" viewBox="0 0 420 236" version="1.1" xmlns="http://www.w3.org/2000/svg" xmlns:xlink="http://www.w3.org/1999/xlink">
    <title>Artboard Copy 11</title>
    <defs>
        <linearGradient x1="52.0435567%" y1="-0.696515625%" x2="52.0435567%" y2="93.75%" id="linearGradient-1">
            <stop stop-color="#1BEBB9" offset="0%"></stop>
            <stop stop-color="#FF9254" offset="100%"></stop>
        </linearGradient>
    </defs>
    <g id="Artboard-Copy-11" stroke="none" stroke-width="1" fill="none" fill-rule="evenodd">
        <rect id="Rectangle-Copy" x="0" y="0" width="420" height="236"></rect>
        <g id="daily-logo-primary-lightground" transform="translate(92.000000, 70.000000)" fill-rule="nonzero">
            <path d="M64.6362433,81 C71.6361998,81 77.4545234,76.972709 79.908848,72.2297816 L79.908848,80.0157376 L93,80.0157376 L93,12 L79.908848,12 L79.908848,40.1907373 C77.2727103,35.4475101 72.5452653,32.1361553 64.9091152,32.1361553 C52.9999006,32.1361553 44,41.1749997 44,56.5682275 L44,57.2841637 C44,72.8560758 53.0909594,81 64.6362433,81 Z M68.5453771,70.8872513 C61.9998011,70.8872513 57.4544737,66.3230081 57.4544737,57.0155378 L57.4544737,56.2996016 C57.4544737,46.9921312 61.5454206,42.0702197 68.9090033,42.0702197 C76.0907729,42.0702197 80.2724741,46.8131471 80.2724741,56.1206175 L80.2724741,56.8365537 C80.2724741,66.3230081 75.4545794,70.8872513 68.5453771,70.8872513 Z" id="Shape" fill="#121A24"></path>
            <path d="M113.875647,82 C121.314308,82 125.487519,79.1282756 128.20898,75.3591373 L128.20898,81.0129951 L141,81.0129951 L141,50.4104304 C141,37.6668528 132.744749,33 121.132877,33 C109.521005,33 100.630594,37.9359266 99.8143075,49.0641593 L112.242466,49.0641593 C112.786758,45.0256465 115.145662,42.422996 120.31659,42.422996 C126.303805,42.422996 128.027549,45.4745038 128.027549,51.0384698 L128.027549,52.9231893 L122.67519,52.9231893 C108.160426,52.9231893 98,57.0512931 98,68.0000429 C98,77.8718962 105.25723,82 113.875647,82 Z M117.776256,72.9359696 C112.968189,72.9359696 110.881887,70.6922846 110.881887,67.2821119 C110.881887,62.2565942 115.327093,60.6409486 122.947184,60.6409486 L128.027549,60.6409486 L128.027549,64.5898702 C128.027549,69.7948707 123.582344,72.9359696 117.776256,72.9359696 Z" id="Shape" fill="#121A24"></path>
            <path d="M148.999817,80 L162.090937,80 L162.090937,32.7073266 L148.999817,32.7073266 L148.999817,80 Z M155.454623,26.2871917 C159.727068,26.2871917 163,23.2127439 163,19.143611 C163,15.0744479 159.727068,12 155.454623,12 C151.272628,12 148,15.0744479 148,19.143611 C148,23.2127439 151.272628,26.2871917 155.454623,26.2871917 Z" id="Shape" fill="#121A24"></path>
            <polygon id="Path" fill="#121A24" points="172 80 184 80 184 12 172 12"></polygon>
            <polygon id="Path" fill="#121A24" points="211.332072 96 237 33 224.450937 33 213.727315 61.2198476 202.182031 33 188 33 207.034643 75.5131228 198.585359 96"></polygon>
            <polygon id="Path" fill="url(#linearGradient-1)" points="0 96 12.5061488 96 51 0 38.7999719 0"></polygon>
        </g>
    </g>
</svg>