<?xml version="1.0" encoding="UTF-8" standalone="no"?>
<svg
   width="1280"
   height="720"
   viewBox="0 0 1280 720"
   fill="none"
   version="1.1"
   id="svg55"
   xmlns="http://www.w3.org/2000/svg"
   xmlns:svg="http://www.w3.org/2000/svg">
  <g
     clip-path="url(#clip0)"
     id="g48"
     transform="matrix(1.0166675,0,0,1.0166675,233.33452,213.59988)">
    <path
       d="m 319.508,169.743 c 0,-12.241 2.379,-23.097 7.136,-32.57 4.902,-9.472 11.534,-16.758 19.895,-21.858 8.362,-5.101 17.661,-7.651 27.897,-7.651 7.785,0 15.209,1.749 22.274,5.246 7.064,3.352 12.686,7.869 16.867,13.553 V 68.9736 h 30.708 V 230.73 h -30.708 v -17.925 c -3.748,5.975 -9.01,10.784 -15.786,14.427 -6.776,3.643 -14.633,5.465 -23.572,5.465 -10.091,0 -19.318,-2.623 -27.68,-7.869 -8.361,-5.246 -14.993,-12.606 -19.895,-22.078 -4.757,-9.618 -7.136,-20.62 -7.136,-33.007 z m 94.286,0.437 c 0,-7.432 -1.442,-13.771 -4.326,-19.017 -2.883,-5.392 -6.775,-9.472 -11.677,-12.241 -4.902,-2.914 -10.164,-4.372 -15.786,-4.372 -5.623,0 -10.813,1.385 -15.571,4.154 -4.757,2.768 -8.65,6.849 -11.677,12.241 -2.884,5.246 -4.325,11.512 -4.325,18.798 0,7.287 1.441,13.699 4.325,19.236 3.027,5.392 6.92,9.545 11.677,12.46 4.902,2.914 10.092,4.371 15.571,4.371 5.622,0 10.884,-1.384 15.786,-4.153 4.902,-2.914 8.794,-6.995 11.677,-12.241 2.884,-5.392 4.326,-11.804 4.326,-19.236 z M 588.467,109.631 514.293,288 h -32.222 l 25.951,-60.331 -48.008,-118.038 h 33.951 l 30.924,84.594 31.357,-84.594 z m 51.57,25.138 v 58.582 c 0,4.08 0.937,7.068 2.811,8.962 2.019,1.749 5.335,2.623 9.948,2.623 h 14.056 v 25.794 h -19.03 c -25.517,0 -38.276,-12.533 -38.276,-37.598 v -58.363 h -14.273 v -25.138 h 14.273 V 79.6845 h 30.491 v 29.9465 h 26.815 v 25.138 z m 159.96,32.788 c 0,4.372 -0.288,8.307 -0.865,11.804 H 711.55 c 0.721,8.744 3.749,15.593 9.083,20.548 5.334,4.954 11.894,7.432 19.679,7.432 11.245,0 19.246,-4.882 24.004,-14.646 h 32.654 c -3.46,11.658 -10.092,21.276 -19.895,28.854 -9.804,7.432 -21.842,11.148 -36.114,11.148 -11.534,0 -21.914,-2.55 -31.141,-7.651 -9.082,-5.246 -16.219,-12.605 -21.409,-22.077 -5.045,-9.472 -7.568,-20.402 -7.568,-32.789 0,-12.532 2.523,-23.534 7.568,-33.007 5.046,-9.472 12.111,-16.758 21.193,-21.858 9.083,-5.101 19.535,-7.651 31.357,-7.651 11.389,0 21.553,2.477 30.491,7.432 9.083,4.955 16.075,12.022 20.976,21.203 5.046,9.035 7.569,19.455 7.569,31.258 z m -31.356,-8.743 c -0.144,-7.869 -2.956,-14.136 -8.434,-18.799 -5.478,-4.809 -12.182,-7.213 -20.111,-7.213 -7.497,0 -13.841,2.331 -19.031,6.995 -5.045,4.517 -8.145,10.856 -9.298,19.017 z"
       fill="#1a1a1a"
       id="path42" />
    <path
       d="M 276.32,157.868 H 156.18 v 121.438 h 120.14 z"
       fill="#2160fd"
       id="path44" />
    <path
       fill-rule="evenodd"
       clip-rule="evenodd"
       d="M 228.266,132.123 V 0.080513 C 226.27,0.0269586 224.267,0 222.259,0 99.5086,0 0,100.584 0,224.661 c 0,2.03 0.026646,4.055 0.0796038,6.072 H 130.453 v -98.61 z"
       fill="#2160fd"
       id="path46" />
  </g>
  <defs
     id="defs53">
    <clipPath
       id="clip0">
      <rect
         width="799.99701"
         height="288"
         fill="#ffffff"
         id="rect50"
         x="0"
         y="0" />
    </clipPath>
  </defs>
</svg>
